<?xml version="1.0" encoding="UTF-8" standalone="no"?>
<!-- Created with Inkscape (http://www.inkscape.org/) -->

<svg
   xmlns:dc="http://purl.org/dc/elements/1.1/"
   xmlns:cc="http://creativecommons.org/ns#"
   xmlns:rdf="http://www.w3.org/1999/02/22-rdf-syntax-ns#"
   xmlns:svg="http://www.w3.org/2000/svg"
   xmlns="http://www.w3.org/2000/svg"
   xmlns:sodipodi="http://sodipodi.sourceforge.net/DTD/sodipodi-0.dtd"
   xmlns:inkscape="http://www.inkscape.org/namespaces/inkscape"
   width="744.09448819"
   height="1052.3622047"
   id="svg2"
   version="1.1"
   inkscape:version="0.48.0 r9654"
   sodipodi:docname="1226os_artwork.svg">
  <defs
     id="defs4" />
  <sodipodi:namedview
     id="base"
     pagecolor="#ffffff"
     bordercolor="#666666"
     borderopacity="1.0"
     inkscape:pageopacity="0.0"
     inkscape:pageshadow="2"
     inkscape:zoom="2.8"
     inkscape:cx="184.20078"
     inkscape:cy="825.96593"
     inkscape:document-units="px"
     inkscape:current-layer="layer1"
     showgrid="false"
     inkscape:window-width="1680"
     inkscape:window-height="1000"
     inkscape:window-x="-8"
     inkscape:window-y="-8"
     inkscape:window-maximized="1" />
  <metadata
     id="metadata7">
    <rdf:RDF>
      <cc:Work
         rdf:about="">
        <dc:format>image/svg+xml</dc:format>
        <dc:type
           rdf:resource="http://purl.org/dc/dcmitype/StillImage" />
        <dc:title></dc:title>
      </cc:Work>
    </rdf:RDF>
  </metadata>
  <g
     inkscape:label="Layer 1"
     inkscape:groupmode="layer"
     id="layer1">
    <rect
       style="fill:none;stroke:#1a1a1a;stroke-width:0.51123577"
       id="rect2985"
       width="208.56787"
       height="30.320555"
       x="273.50696"
       y="59.137848"
       rx="1.779211"
       inkscape:export-filename="C:\Users\Richard\Documents\Personal\Books\Drupal 7 Commerce\chapters\ch7-code\new-logo.png"
       inkscape:export-xdpi="86.098656"
       inkscape:export-ydpi="86.098656" />
    <flowRoot
       xml:space="preserve"
       id="flowRoot2987"
       style="font-size:20px;font-style:normal;font-variant:normal;font-weight:normal;font-stretch:normal;text-align:start;line-height:100%;letter-spacing:0px;word-spacing:0px;writing-mode:lr-tb;text-anchor:start;fill:#000000;fill-opacity:1;stroke:none;font-family:Arial;-inkscape-font-specification:Arial"
       transform="translate(214.25769,-155.83154)"
       inkscape:export-filename="C:\Users\Richard\Documents\Personal\Books\Drupal 7 Commerce\chapters\ch7-code\new-logo.png"
       inkscape:export-xdpi="86.098656"
       inkscape:export-ydpi="86.098656"><flowRegion
         id="flowRegion2989"><rect
           id="rect2991"
           width="231.32494"
           height="73.741135"
           x="64.649765"
           y="224.03709" /></flowRegion><flowPara
         id="flowPara2993"
         style="font-style:normal;font-variant:normal;font-weight:normal;font-stretch:normal;font-family:Gill Sans MT;-inkscape-font-specification:Gill Sans MT">DRUPAL<flowSpan
   style="font-weight:bold"
   id="flowSpan2995">COMMERCE</flowSpan></flowPara></flowRoot>    <rect
       inkscape:export-ydpi="89.649803"
       inkscape:export-xdpi="89.649803"
       inkscape:export-filename="C:\Users\Richard\Documents\Personal\Books\Drupal 7 Commerce\chapters\ch7-code\favicon.png"
       rx="0.26545963"
       y="180.39915"
       x="273.44772"
       height="31.118484"
       width="31.118483"
       id="rect2997"
       style="fill:none;stroke:#1a1a1a;stroke-width:1;stroke-miterlimit:4;stroke-dasharray:none" />
    <flowRoot
       inkscape:export-ydpi="89.649803"
       inkscape:export-xdpi="89.649803"
       inkscape:export-filename="C:\Users\Richard\Documents\Personal\Books\Drupal 7 Commerce\chapters\ch7-code\favicon.png"
       transform="translate(209.02987,-34.821391)"
       style="font-size:20px;font-style:normal;font-variant:normal;font-weight:normal;font-stretch:normal;text-align:start;line-height:100%;letter-spacing:0px;word-spacing:0px;writing-mode:lr-tb;text-anchor:start;fill:#000000;fill-opacity:1;stroke:none;font-family:Arial;-inkscape-font-specification:Arial"
       id="flowRoot2999"
       xml:space="preserve"><flowRegion
         id="flowRegion3001"><rect
           y="224.03709"
           x="64.649765"
           height="73.741135"
           width="231.32494"
           id="rect3003" /></flowRegion><flowPara
         style="font-style:normal;font-variant:normal;font-weight:normal;font-stretch:normal;font-family:Gill Sans MT;-inkscape-font-specification:Gill Sans MT"
         id="flowPara3005">D<flowSpan
   id="flowSpan3007"
   style="font-weight:bold">C</flowSpan></flowPara></flowRoot>    <rect
       style="fill:#88aa00;fill-opacity:1;fill-rule:nonzero;stroke:#1a1a1a;stroke-width:1;stroke-linecap:round;stroke-linejoin:round;stroke-miterlimit:4;stroke-opacity:1;stroke-dasharray:none;stroke-dashoffset:0"
       id="rect3018"
       width="137.14285"
       height="100"
       x="-36.42857"
       y="98.076477"
       rx="1.779211" />
    <rect
       rx="1.779211"
       y="122.36219"
       x="-26.42857"
       height="100"
       width="137.14285"
       id="rect3788"
       style="fill:#739000;fill-opacity:1;fill-rule:nonzero;stroke:#1a1a1a;stroke-width:1;stroke-linecap:round;stroke-linejoin:round;stroke-miterlimit:4;stroke-opacity:1;stroke-dasharray:none;stroke-dashoffset:0" />
    <g
       id="g3647"
       transform="translate(-858.14286,197.78917)">
      <path
         inkscape:connector-curvature="0"
         id="path3635"
         d="m 885.64732,-27.974507 c 0,7.646691 0,7.646691 0,7.646691 9.17603,0 9.17603,0 9.17603,0 3.05867,-4.588014 3.05867,-4.588014 3.05867,-4.588014 0,-3.058677 0,-3.058677 0,-3.058677 -10.70537,0 -10.70537,0 -10.70537,0 0,-1.529337 0,-1.529337 0,-1.529337 -3.05867,0 -3.05867,0 -3.05867,0"
         style="fill:none;stroke:#ffffff;stroke-width:0.76466906px;stroke-linecap:butt;stroke-linejoin:miter;stroke-opacity:1" />
      <path
         inkscape:connector-curvature="0"
         id="path3637"
         d="m 887.17665,-20.327816 c 0,3.058676 0,3.058676 0,3.058676"
         style="fill:none;stroke:#ffffff;stroke-width:0.62434965px;stroke-linecap:butt;stroke-linejoin:miter;stroke-opacity:1" />
      <path
         inkscape:connector-curvature="0"
         id="path3639"
         d="m 885.51075,-17.63782 c 10.70536,0 10.70536,0 10.70536,0"
         style="fill:none;stroke:#ffffff;stroke-width:0.76466906px;stroke-linecap:butt;stroke-linejoin:miter;stroke-opacity:1" />
      <path
         transform="matrix(0.76466906,0,0,1.2372555,44.51138,-601.25377)"
         d="m 1104,472.61804 c 0,0.34133 -0.4477,0.61804 -1,0.61804 -0.5523,0 -1,-0.27671 -1,-0.61804 0,-0.34133 0.4477,-0.61803 1,-0.61803 0.5523,0 1,0.2767 1,0.61803 z"
         sodipodi:ry="0.61803401"
         sodipodi:rx="1"
         sodipodi:cy="472.61804"
         sodipodi:cx="1103"
         id="path3643"
         style="fill:#ffffff;fill-opacity:1;fill-rule:nonzero;stroke:#ffffff"
         sodipodi:type="arc" />
      <path
         sodipodi:type="arc"
         style="fill:#ffffff;fill-opacity:1;fill-rule:nonzero;stroke:#ffffff"
         id="path3645"
         sodipodi:cx="1103"
         sodipodi:cy="472.61804"
         sodipodi:rx="1"
         sodipodi:ry="0.61803401"
         d="m 1104,472.61804 c 0,0.34133 -0.4477,0.61804 -1,0.61804 -0.5523,0 -1,-0.27671 -1,-0.61804 0,-0.34133 0.4477,-0.61803 1,-0.61803 0.5523,0 1,0.2767 1,0.61803 z"
         transform="matrix(0.76466906,0,0,1.2372555,50.628733,-601.25377)" />
    </g>
    <g
       transform="translate(-749.57143,178.8606)"
       id="g4154"
       inkscape:export-filename="C:\Users\Richard\Documents\Personal\Books\Drupal 7 Commerce\chapters\ch7-code\theme\images\add-to-cart_bg.png"
       inkscape:export-xdpi="101.89627"
       inkscape:export-ydpi="101.89627">
      <path
         style="fill:none;stroke:#ffffff;stroke-width:0.76466906px;stroke-linecap:butt;stroke-linejoin:miter;stroke-opacity:1"
         d="m 885.64732,-27.974507 c 0,7.646691 0,7.646691 0,7.646691 9.17603,0 9.17603,0 9.17603,0 3.05867,-4.588014 3.05867,-4.588014 3.05867,-4.588014 0,-3.058677 0,-3.058677 0,-3.058677 -10.70537,0 -10.70537,0 -10.70537,0 0,-1.529337 0,-1.529337 0,-1.529337 -3.05867,0 -3.05867,0 -3.05867,0"
         id="path4156"
         inkscape:connector-curvature="0" />
      <path
         style="fill:none;stroke:#ffffff;stroke-width:0.62434965px;stroke-linecap:butt;stroke-linejoin:miter;stroke-opacity:1"
         d="m 887.17665,-20.327816 c 0,3.058676 0,3.058676 0,3.058676"
         id="path4158"
         inkscape:connector-curvature="0" />
      <path
         style="fill:none;stroke:#ffffff;stroke-width:0.76466906px;stroke-linecap:butt;stroke-linejoin:miter;stroke-opacity:1"
         d="m 885.51075,-17.63782 c 10.70536,0 10.70536,0 10.70536,0"
         id="path4160"
         inkscape:connector-curvature="0" />
      <path
         sodipodi:type="arc"
         style="fill:#ffffff;fill-opacity:1;fill-rule:nonzero;stroke:#ffffff"
         id="path4162"
         sodipodi:cx="1103"
         sodipodi:cy="472.61804"
         sodipodi:rx="1"
         sodipodi:ry="0.61803401"
         d="m 1104,472.61804 c 0,0.34133 -0.4477,0.61804 -1,0.61804 -0.5523,0 -1,-0.27671 -1,-0.61804 0,-0.34133 0.4477,-0.61803 1,-0.61803 0.5523,0 1,0.2767 1,0.61803 z"
         transform="matrix(0.76466906,0,0,1.2372555,44.51138,-601.25377)" />
      <path
         transform="matrix(0.76466906,0,0,1.2372555,50.628733,-601.25377)"
         d="m 1104,472.61804 c 0,0.34133 -0.4477,0.61804 -1,0.61804 -0.5523,0 -1,-0.27671 -1,-0.61804 0,-0.34133 0.4477,-0.61803 1,-0.61803 0.5523,0 1,0.2767 1,0.61803 z"
         sodipodi:ry="0.61803401"
         sodipodi:rx="1"
         sodipodi:cy="472.61804"
         sodipodi:cx="1103"
         id="path4164"
         style="fill:#ffffff;fill-opacity:1;fill-rule:nonzero;stroke:#ffffff"
         sodipodi:type="arc" />
    </g>
  </g>
</svg>
